<?xml version="1.0" encoding="UTF-8" standalone="no"?>
<svg width="456" height="456" viewBox="0 0 456 456" version="1.1" xmlns="http://www.w3.org/2000/svg">
    <defs>
        <linearGradient id="bg" x1="26" y1="18" x2="430" y2="440" gradientUnits="userSpaceOnUse">
            <stop offset="0" stop-color="#050A1F" />
            <stop offset="1" stop-color="#15347E" />
        </linearGradient>
        <radialGradient id="core" cx="228" cy="220" r="170" gradientUnits="userSpaceOnUse">
            <stop offset="0" stop-color="#365BC3" stop-opacity="0.42" />
            <stop offset="1" stop-color="#365BC3" stop-opacity="0" />
        </radialGradient>
        <linearGradient id="ring" x1="112" y1="102" x2="336" y2="348" gradientUnits="userSpaceOnUse">
            <stop offset="0" stop-color="#67E9FF" />
            <stop offset="1" stop-color="#6474FF" />
        </linearGradient>
        <linearGradient id="lock" x1="160" y1="196" x2="300" y2="354" gradientUnits="userSpaceOnUse">
            <stop offset="0" stop-color="#FFFFFF" />
            <stop offset="1" stop-color="#D8E3FF" />
        </linearGradient>
        <linearGradient id="shackle" x1="176" y1="118" x2="292" y2="230" gradientUnits="userSpaceOnUse">
            <stop offset="0" stop-color="#A9BAFF" />
            <stop offset="1" stop-color="#ECF2FF" />
        </linearGradient>
    </defs>

    <rect x="0" y="0" width="456" height="456" rx="104" fill="url(#bg)" />
    <circle cx="90" cy="72" r="152" fill="#7AA7FF" opacity="0.10" />
    <circle cx="364" cy="62" r="120" fill="#5CD8FF" opacity="0.10" />
    <circle cx="228" cy="220" r="170" fill="url(#core)" />

    <circle cx="228" cy="228" r="146" fill="none" stroke="#A4B8FF" stroke-opacity="0.20" stroke-width="22" />
    <circle cx="228" cy="228" r="146" fill="none" stroke="url(#ring)" stroke-width="22" stroke-linecap="round" stroke-dasharray="622 296" transform="rotate(-34 228 228)" />
    <circle cx="348" cy="138" r="11" fill="#7BECFF" />

    <path d="M176 201v-34c0-32 26-58 58-58s58 26 58 58v34" fill="none" stroke="url(#shackle)" stroke-width="24" stroke-linecap="round" stroke-linejoin="round" />
    <rect x="150" y="197" width="168" height="158" rx="44" fill="#001744" opacity="0.24" />
    <rect x="150" y="189" width="168" height="158" rx="44" fill="url(#lock)" />
    <rect x="150" y="189" width="168" height="158" rx="44" fill="none" stroke="#C3D0FF" stroke-opacity="0.42" stroke-width="2" />

    <path d="M282 221l-24 36h20l-16 30 36-44h-22l16-22z" fill="#63DCFF" />
    <circle cx="228" cy="252" r="18" fill="#2A3F85" />
    <rect x="217" y="266" width="22" height="44" rx="11" fill="#2A3F85" />
</svg>